<?xml version="1.0" encoding="UTF-8" standalone="no"?>
<svg
   xmlns:dc="http://purl.org/dc/elements/1.1/"
   xmlns:cc="http://creativecommons.org/ns#"
   xmlns:rdf="http://www.w3.org/1999/02/22-rdf-syntax-ns#"
   xmlns:svg="http://www.w3.org/2000/svg"
   xmlns="http://www.w3.org/2000/svg"
   viewBox="0 0 264 272"
   height="272"
   width="264"
   xml:space="preserve"
   id="svg2"
   version="1.1"><metadata
     id="metadata8"><rdf:RDF><cc:Work
         rdf:about=""><dc:format>image/svg+xml</dc:format><dc:type
           rdf:resource="http://purl.org/dc/dcmitype/StillImage" /></cc:Work></rdf:RDF></metadata><defs
     id="defs6" /><g
     transform="matrix(1.3333333,0,0,-1.3333333,0,272)"
     id="g10"><g
       transform="scale(0.1)"
       id="g12"><path
         id="path14"
         style="fill:#000000;fill-opacity:1;fill-rule:nonzero;stroke:none"
         d="m 758.477,1895.02 c 9.121,-85.79 -85.176,-133.85 -79.09,-220.86 4.258,-44.41 30.418,-84.57 73.609,-100.38 48.067,-18.87 114.387,-28.6 132.031,-87.01 3.039,-15.81 -0.613,-31.63 -11.558,-41.37 -13.391,-11.56 -31.645,-17.65 -50.5,-12.17 -35.293,12.17 -37.727,52.93 -52.324,81.53 v 6.69 c 45.632,1.82 42.585,-73.01 90.656,-60.23 6.687,3.04 12.168,9.74 12.168,17.03 -13.391,70.58 -97.961,61.46 -149.668,85.18 -31.035,11.56 -54.77,40.16 -59.028,73.02 -20.679,96.12 66.321,152.1 74.231,239.1 0.605,23.12 -7.293,45.63 -16.426,66.31 18.86,-7.9 28.594,-27.98 35.899,-46.84" /><path
         id="path16"
         style="fill:#000000;fill-opacity:1;fill-rule:nonzero;stroke:none"
         d="m 888.066,1882.25 -4.863,4.25 -1.824,-1.82 c -18.867,-73.63 -34.68,-148.46 -51.723,-222.69 -3.648,-3.64 -3.648,-12.77 -10.945,-10.34 -94.309,62.67 -7.91,181.31 -45.027,268.92 -17.036,32.86 -52.93,57.2 -88.215,66.32 -50.496,16.43 -106.477,1.82 -143.594,-29.81 -12.168,-15.82 -34.68,-34.68 -21.289,-55.37 34.68,-10.95 84.57,24.34 111.34,-15.82 30.418,-59.01 -14.602,-112.55 -26.164,-166.7 -6.082,-13.39 -3.047,-30.42 -10.34,-43.21 -27.988,1.23 -52.324,18.26 -80.918,21.31 v -2.43 c 22.508,-15.83 46.238,-26.17 69.351,-38.95 20.083,-6.09 12.168,-28.6 18.254,-42.59 18.868,-98.56 167.93,-88.83 163.059,-201.99 0.602,-2.44 1.219,-6.69 5.477,-5.48 9.738,17.04 1.828,40.16 -1.219,58.41 -16.43,54.76 -74.231,79.7 -110.117,120.47 -81.536,125.33 83.347,211.73 42.586,337.67 -10.34,30.42 -41.375,46.85 -69.969,54.14 37.105,5.48 77.262,-1.21 104.043,-27.99 65.703,-50.49 20.078,-140.53 24.336,-209.9 -1.828,-80.3 76.043,-119.85 135.066,-152.7 15.203,-10.96 26.77,-26.78 41.984,-37.73 l 1.825,3.04 c -15.215,109.52 -31.641,221.47 -51.114,330.99 z m -297.519,38.93 c -18.859,-1.22 -37.109,-9.13 -55.969,-7.3 -3.047,9.13 5.473,14.6 10.344,19.47 12.773,13.39 32.851,10.95 50.5,9.74 12.769,-4.88 27.984,-8.52 33.465,-22.52 -12.176,-4.25 -24.344,3.65 -38.34,0.61" /><path
         id="path18"
         style="fill:#000000;fill-opacity:1;fill-rule:nonzero;stroke:none"
         d="m 1512.3,1845.74 c 30.43,-59.63 8.52,-130.81 -18.25,-184.96 l 1.82,-1.83 c 34.69,18.86 69.36,37.73 104.04,56.59 l 4.86,-1.22 -5.46,-11.55 -220.25,-283.53 c -20.69,-23.13 -44.41,-55.98 -76.05,-57.19 l -1.22,0.61 c 35.29,24.33 68.75,62.06 79.7,105.25 9.12,68.14 35.29,131.41 83.35,181.91 40.16,48.07 65.72,110.74 43.2,175.23 -13.38,39.55 -48.06,69.97 -87.61,76.66 15.21,-15.21 40.16,-27.37 49.29,-49.89 12.17,-24.34 10.94,-59.02 -6.7,-80.3 -55.36,-67.54 -180.09,-48.69 -189.83,-158.2 0.62,-62.67 -3.03,-132.64 -65.7,-158.8 -23.73,-10.95 -45.63,-26.77 -71.19,-31.63 l -3.04,3.65 c 7.3,20.08 21.91,32.25 37.72,48.67 -1.21,0.61 -1.21,1.83 -1.21,3.04 18.86,7.91 27.98,24.34 42.59,38.94 39.53,57.8 10.94,149.06 82.13,188.01 l 10.35,10.34 1.21,77.26 h 2.43 l 15.21,-67.53 6.69,-1.82 c 41.98,13.99 101,33.45 105.87,87.6 -3.65,37.13 -43.81,51.72 -49.89,87.62 -0.61,9.12 7.91,14.6 15.21,17.03 45.63,1.23 91.26,-27.99 110.73,-69.96" /><path
         id="path20"
         style="fill:#000000;fill-opacity:1;fill-rule:nonzero;stroke:none"
         d="m 1285.98,1871.89 c -35.9,-33.45 -66.32,-76.04 -101.01,-111.94 l -5.47,-0.6 c -21.3,20.08 -39.55,45.62 -48.67,73.01 -13.99,40.15 -6.7,88.21 26.16,116.19 16.43,21.91 55.97,26.78 51.11,60.24 -41.99,44.41 -119.25,29.82 -161.84,-6.08 -102.217,-86.39 27.37,-215.99 -49.893,-309.68 -17.043,21.9 -26.164,49.27 -41.98,73.01 h -3.657 l 26.165,-76.06 c 12.168,-16.43 5.48,-38.33 -4.864,-53.53 -24.336,-57.2 -29.211,-141.77 15.203,-191.05 14.616,-15.82 37.126,-32.25 61.456,-24.34 7.29,2.44 13.38,8.52 13.38,17.04 -3.04,24.33 -20.08,-5.47 -32.85,3.65 -13.99,4.87 -23.11,16.43 -31.029,28.59 -11.558,23.73 -17.644,62.06 -1.824,84.57 4.263,-9.12 4.863,-20.68 7.913,-31.02 4.86,-17.65 10.95,-37.73 26.77,-47.46 -42.593,79.09 11.56,155.14 62.06,211.72 55.97,96.14 -57.81,169.15 -21.91,268.93 14.6,35.28 51.1,54.76 87.61,59.01 13.39,-1.21 28.6,0 36.51,-12.16 2.43,-5.48 -2.44,-10.34 -6.69,-14 -31.64,-18.25 -71.19,-32.24 -85.18,-71.18 -10.95,-33.47 -5.48,-73.62 12.77,-101.61 39.55,-46.85 88.83,-104.65 56.58,-169.14 -29.8,-46.24 -66.31,-108.29 -29.8,-163.06 3.64,-2.43 6.08,-1.21 9.12,2.44 l 133.24,368.71 2.43,15.8 z m -203.82,-80.39 c 12.77,-16.43 11.55,-51.02 9.12,-71.7 -17.65,-50.5 -63.89,-74.84 -95.518,-114.39 23.118,62.66 76.048,116.79 86.398,186.09" /><path
         id="path22"
         style="fill:none;stroke:#000000;stroke-width:0.89999998;stroke-linecap:butt;stroke-linejoin:miter;stroke-miterlimit:4;stroke-dasharray:none;stroke-opacity:1"
         d="m 1285.98,1871.89 c -35.9,-33.45 -66.32,-76.04 -101.01,-111.94 l -5.47,-0.6 c -21.3,20.08 -39.55,45.62 -48.67,73.01 -13.99,40.15 -6.7,88.21 26.16,116.19 16.43,21.91 55.97,26.78 51.11,60.24 -41.99,44.41 -119.25,29.82 -161.84,-6.08 -102.217,-86.39 27.37,-215.99 -49.893,-309.68 -17.043,21.9 -26.164,49.27 -41.98,73.01 h -3.657 l 26.165,-76.06 c 12.168,-16.43 5.48,-38.33 -4.864,-53.53 -24.336,-57.2 -29.211,-141.77 15.203,-191.05 14.616,-15.82 37.126,-32.25 61.456,-24.34 7.29,2.44 13.38,8.52 13.38,17.04 -3.04,24.33 -20.08,-5.47 -32.85,3.65 -13.99,4.87 -23.11,16.43 -31.029,28.59 -11.558,23.73 -17.644,62.06 -1.824,84.57 4.263,-9.12 4.863,-20.68 7.913,-31.02 4.86,-17.65 10.95,-37.73 26.77,-47.46 -42.593,79.09 11.56,155.14 62.06,211.72 55.97,96.14 -57.81,169.15 -21.91,268.93 14.6,35.28 51.1,54.76 87.61,59.01 13.39,-1.21 28.6,0 36.51,-12.16 2.43,-5.48 -2.44,-10.34 -6.69,-14 -31.64,-18.25 -71.19,-32.24 -85.18,-71.18 -10.95,-33.47 -5.48,-73.62 12.77,-101.61 39.55,-46.85 88.83,-104.65 56.58,-169.14 -29.8,-46.24 -66.31,-108.29 -29.8,-163.06 3.64,-2.43 6.08,-1.21 9.12,2.44 l 133.24,368.71 2.43,15.8 z m -203.82,-80.39 c 12.77,-16.43 11.55,-51.02 9.12,-71.7 -17.65,-50.5 -63.89,-74.84 -95.518,-114.39 23.118,62.66 76.048,116.79 86.398,186.09 z" /><path
         id="path24"
         style="fill:#000000;fill-opacity:1;fill-rule:nonzero;stroke:none"
         d="m 1489.79,1759.35 c -41.98,-69.97 -150.28,-81.54 -164.27,-170.37 -3.04,-60.84 6.08,-131.41 -52.33,-164.26 -21.3,-12.79 -43.8,-26.77 -69.35,-20.7 v 3.05 c 47.45,20.68 88.21,67.53 87.61,122.29 -5.47,63.28 8.51,127.77 66.92,155.76 46.84,21.9 97.96,41.98 132.03,86.4 4.26,-3.05 -0.61,-8.53 -0.61,-12.17" /><path
         id="path26"
         style="fill:#000000;fill-opacity:1;fill-rule:nonzero;stroke:none"
         d="m 1152.12,1723.45 c 10.95,-99.17 -137.5,-153.94 -66.32,-256.75 v -1.84 c -29.2,15.22 -42.59,50.51 -39.54,85.19 6.69,74.83 93.09,116.81 95.52,193.47 7.91,-2.43 7.91,-12.78 10.34,-20.07" /><path
         id="path28"
         style="fill:#000000;fill-opacity:1;fill-rule:nonzero;stroke:none"
         d="m 718.32,1730.14 c -5.476,-45.02 11.563,-88.23 46.848,-112.56 63.887,-31.63 138.113,-65.1 167.312,-137.5 0.606,-4.87 4.875,-7.31 3.047,-12.17 -1.218,-1.82 -3.652,-0.61 -5.476,-1.21 -30.422,74.83 -107.082,106.46 -177.055,128.37 -28.594,12.16 -48.672,40.76 -52.93,70.57 -3.046,24.95 0.61,48.68 15.207,67.54 l 3.047,-3.04" /><path
         id="path30"
         style="fill:#000000;fill-opacity:1;fill-rule:nonzero;stroke:none"
         d="m 1487.36,1719.19 c -1.22,-12.78 -8.52,-25.56 -17.64,-35.9 -39.55,-42.59 -94.92,-84.57 -95.53,-149.66 -10.34,-61.46 -45.02,-131.42 -111.34,-146.64 v 3.65 c 50.5,25.55 84.57,77.27 83.97,134.46 -2.44,57.2 19.46,108.3 68.75,137.51 26.16,19.46 46.24,37.11 69.35,56.58 h 2.44" /><path
         id="path32"
         style="fill:#000000;fill-opacity:1;fill-rule:nonzero;stroke:none"
         d="m 1849.36,1576.82 c 3.04,-1.83 2.44,-6.09 1.21,-7.91 -21.28,-6.09 -42.58,7.3 -65.69,3.04 -34.68,-12.78 -64.5,-38.94 -67.54,-77.88 -3.65,-35.28 -4.27,-73.01 -10.35,-105.86 l 3.65,-3.65 c 37.11,-1.83 75.45,-0.61 111.34,-4.87 l -6.08,-6.69 -343.15,-149.67 c -3.65,0 -6.08,-1.83 -9.73,-1.22 -3.04,3.65 -0.61,9.74 1.82,13.39 38.34,55.36 116.21,43.19 167.32,81.52 57.8,40.16 73.62,111.34 69.97,182.53 4.26,34.68 31.64,65.1 62.67,79.09 1.82,3.04 5.47,4.87 4.25,9.13 -17.64,14.61 -39.55,1.21 -55.36,-6.7 l -21.9,-15.82 c -6.09,3.66 0.6,12.17 1.82,17.65 10.34,20.69 29.2,39.55 51.71,43.19 46.85,6.7 61.46,-46.23 104.04,-49.27" /><path
         id="path34"
         style="fill:#000000;fill-opacity:1;fill-rule:nonzero;stroke:none"
         d="m 1112.58,1573.78 c -5.48,-34.69 -3.65,-74.84 15.81,-103.44 0,-4.25 -3.04,-6.69 -7.3,-7.91 -22.5,9.74 -31.64,34.68 -32.86,59.02 -1.81,21.29 7.91,40.77 24.35,52.33" /><path
         id="path36"
         style="fill:#000000;fill-opacity:1;fill-rule:nonzero;stroke:none"
         d="m 1828.07,1622.45 c -5.47,10.34 -15.21,19.46 -24.34,25.55 -31.03,26.16 -82.75,22.52 -117.42,4.26 -27.38,-11.56 -41.99,-35.29 -65.71,-53.54 -5.47,11.56 0,27.37 -4.26,39.55 h -2.43 c -10.95,-29.21 -14,-62.06 -20.08,-93.7 -26.77,-56.58 -90.05,-72.4 -145.41,-86.39 -62.06,-17.65 -69.36,-86.4 -122.29,-119.86 l -1.83,-6.69 c 7.3,-7.91 14.61,-21.9 27.38,-17.65 37.11,20.69 51.1,61.45 83.35,86.4 51.11,34.07 96.13,-25.56 150.28,-3.65 81.53,46.24 38.94,158.18 97.95,219.02 19.47,20.08 45.63,34.07 75.45,29.21 25.56,-4.26 35.28,-27.38 59.62,-34.68 8.53,-2.44 10.96,6.69 9.74,12.17 z m -259.8,-181.92 c 1.83,-9.12 21.3,-10.34 14,-23.12 -38.94,-34.07 -76.66,11.57 -119.25,7.91 19.47,15.21 46.24,15.21 67.54,26.77 35.89,18.25 62.05,46.85 84.57,81.54 l 3.03,-3.06 c -4.25,-35.28 -23.11,-66.92 -49.89,-90.04" /><path
         id="path38"
         style="fill:#000000;fill-opacity:1;fill-rule:nonzero;stroke:none"
         d="m 519.363,1466.7 c 20.078,-52.32 -6.082,-127.77 51.723,-160.02 13.992,-9.74 31.023,-12.77 49.273,-12.17 0,-10.95 -14.597,-15.82 -23.113,-20.68 -23.125,-9.74 -54.758,-7.31 -74.226,8.51 -48.672,35.9 -32.852,106.48 -26.165,159.41 0,30.42 -12.167,57.8 -36.503,77.88 6.086,2.43 10.949,-2.44 17.031,-3.05 19.472,-10.94 34.07,-29.2 41.98,-49.88" /><path
         id="path40"
         style="fill:#000000;fill-opacity:1;fill-rule:nonzero;stroke:none"
         d="m 553.438,1421.67 c 15.82,-37.11 43.808,-77.87 87,-85.78 5.48,-2.43 1.222,-7.91 0,-9.74 -10.34,-8.51 -24.333,-9.73 -37.723,-10.34 -21.289,0.61 -36.504,17.65 -45.625,35.89 -7.305,21.3 -10.957,47.46 -6.692,69.97 h 3.04" /><path
         id="path42"
         style="fill:#000000;fill-opacity:1;fill-rule:nonzero;stroke:none"
         d="m 1661.97,1418.02 c -11.56,-44.41 -59.01,-65.1 -95.52,-86.39 -3.65,-4.87 -9.73,-10.35 -5.47,-17.65 l 7.91,-9.12 -5.48,-5.47 c -40.77,-14.62 -87,-22.53 -114.39,-65.11 l -2.43,-0.61 c -4.86,9.13 3.05,19.47 7.3,28.6 11.56,20.07 32.25,37.12 43.81,56.58 4.87,8.51 -5.47,14.61 -1.83,21.29 62.06,9.13 128.38,20.69 164.27,77.88 h 1.83" /><path
         id="path44"
         style="fill:#000000;fill-opacity:1;fill-rule:nonzero;stroke:none"
         d="m 1545.76,1369.35 c -13.99,-7.3 -34.07,-3.65 -49.89,-8.52 -50.5,-10.34 -82.13,-51.72 -118.64,-82.14 -4.26,-1.21 -7.3,1.22 -8.52,4.26 4.26,22.52 21.9,37.73 35.29,55.37 27.99,31.03 69.98,47.45 115.6,38.33 8.51,-2.43 18.87,-1.83 26.16,-7.3" /><path
         id="path46"
         style="fill:#000000;fill-opacity:1;fill-rule:nonzero;stroke:none"
         d="m 1065.12,1362.66 c -9.14,-7.91 -21.91,-14.6 -25.56,-26.77 -1.21,-11.57 4.26,-18.25 13.39,-23.73 12.17,-3.05 6.69,-21.3 21.29,-22.51 45.64,1.21 82.14,49.28 129.6,20.68 11.55,-7.91 22.51,-16.42 38.33,-10.34 3.03,3.04 6.69,8.52 10.94,5.48 4.88,-4.26 3.66,-12.78 1.23,-17.65 -4.88,-7.91 -12.17,-15.21 -21.91,-17.64 -42.59,-9.13 -69.97,36.5 -113.16,17.64 -24.95,-10.34 -55.98,-26.16 -83.36,-10.34 -16.43,8.52 -19.46,26.16 -19.46,43.2 3.03,21.29 18.25,36.5 38.93,43.19 4.26,-0.61 6.08,1.22 9.74,-1.21" /><path
         id="path48"
         style="fill:#000000;fill-opacity:1;fill-rule:nonzero;stroke:none"
         d="m 850.344,1360.23 c -10.344,-7.31 -25.547,-7.92 -37.715,-12.17 -15.82,-8.53 -39.555,-18.26 -41.984,-39.55 0,-7.91 6.691,-12.78 13.378,-15.21 26.165,3.64 55.977,9.73 81.536,-0.61 25.554,-12.78 60.836,-14.6 83.347,7.3 4.871,0.61 4.258,-4.26 5.481,-7.3 0.601,-12.78 -9.739,-24.34 -19.477,-30.42 -59.617,-33.46 -99.168,48.67 -160.613,15.21 -21.902,-10.34 -45.027,-27.38 -71.192,-15.21 -9.738,7.3 -15.207,17.64 -13.996,30.42 -0.601,5.47 3.657,10.34 9.133,10.34 41.367,-6.09 60.84,42.6 96.738,52.94 16.426,6.69 37.723,11.55 55.364,4.26" /><path
         id="path50"
         style="fill:#000000;fill-opacity:1;fill-rule:nonzero;stroke:none"
         d="m 1293.88,1296.94 c 0,-13.99 -8.52,-27.37 -20.07,-34.67 2.43,13.38 5.47,26.76 12.17,38.94 3.64,0 6.69,-0.61 7.9,-4.27" /><path
         id="path52"
         style="fill:#000000;fill-opacity:1;fill-rule:nonzero;stroke:none"
         d="m 679.387,1239.15 c -0.617,-6.08 -6.086,-0.61 -9.133,-1.22 -11.563,9.74 -24.336,15.82 -26.16,32.25 3.047,3.04 8.511,1.82 12.168,0.6 11.558,-7.9 18.25,-19.46 23.125,-31.63" /><path
         id="path54"
         style="fill:#000000;fill-opacity:1;fill-rule:nonzero;stroke:none"
         d="m 1385.75,1242.8 c 0,-9.73 -10.95,-12.16 -17.04,-17.04 -24.33,-9.12 -50.5,-18.25 -77.26,-15.82 -2.43,2.44 -6.69,5.48 -3.66,9.74 29.21,7.91 59.63,12.77 86.4,27.99 4.26,0 9.74,0.6 11.56,-4.87" /><path
         id="path56"
         style="fill:#000000;fill-opacity:1;fill-rule:nonzero;stroke:none"
         d="m 1166.11,1272.61 c -26.16,9.13 -53.53,-1.83 -69.35,-19.47 -21.9,-24.33 -15.22,-66.32 -1.83,-92.48 h 8.52 c 45.63,18.86 96.74,29.82 133.24,66.32 v 6.69 c -25.56,8.52 -45.64,30.42 -70.58,38.94 z m -27.98,-83.35 c -7.92,-1.83 -14.61,3.04 -20.69,7.91 -7.91,8.51 -11.56,18.85 -11.56,30.42 1.22,7.91 4.87,15.82 11.56,18.86 9.74,-12.78 7.91,-29.81 15.82,-43.2 1.83,-4.26 6.69,-7.91 4.87,-13.99 z m 36.5,15.21 c -1.83,-0.61 -3.65,-3.65 -5.47,-1.22 -7.3,16.43 -11.56,34.07 -21.9,48.68 0.6,3.04 -1.22,7.3 3.03,6.68 10.96,-0.6 19.48,-8.51 24.95,-17.63 5.47,-10.96 6.69,-26.17 -0.61,-36.51" /><path
         id="path58"
         style="fill:none;stroke:#ffffff;stroke-width:0.54000002;stroke-linecap:butt;stroke-linejoin:miter;stroke-miterlimit:4;stroke-dasharray:none;stroke-opacity:1"
         d="m 1166.11,1272.61 c -26.16,9.13 -53.53,-1.83 -69.35,-19.47 -21.9,-24.33 -15.22,-66.32 -1.83,-92.48 h 8.52 c 45.63,18.86 96.74,29.82 133.24,66.32 v 6.69 c -25.56,8.52 -45.64,30.42 -70.58,38.94 z m -27.98,-83.35 c -7.92,-1.83 -14.61,3.04 -20.69,7.91 -7.91,8.51 -11.56,18.85 -11.56,30.42 1.22,7.91 4.87,15.82 11.56,18.86 9.74,-12.78 7.91,-29.81 15.82,-43.2 1.83,-4.26 6.69,-7.91 4.87,-13.99 z m 36.5,15.21 c -1.83,-0.61 -3.65,-3.65 -5.47,-1.22 -7.3,16.43 -11.56,34.07 -21.9,48.68 0.6,3.04 -1.22,7.3 3.03,6.68 10.96,-0.6 19.48,-8.51 24.95,-17.63 5.47,-10.96 6.69,-26.17 -0.61,-36.51 z" /><path
         id="path60"
         style="fill:#000000;fill-opacity:1;fill-rule:nonzero;stroke:none"
         d="m 857.645,1235.5 c -7.911,14.6 -17.645,25.55 -32.848,31.64 -37.121,15.81 -68.149,-13.39 -95.527,-34.69 -8.516,-7.29 -23.118,-6.08 -27.993,-17.03 40.161,-45.02 107.7,-31.64 154.543,-63.27 l 5.481,4.26 c -1.223,26.16 11.558,55.97 -3.656,79.09 z m -76.661,-20.69 c -3.046,-5.47 -0.601,-18.25 -9.734,-15.82 -9.734,12.78 -8.516,30.42 -0.605,43.81 6.085,7.3 15.82,16.43 27.375,13.38 -1.821,-14.6 -13.379,-26.77 -17.036,-41.37 z m 45.637,-21.9 c -5.476,-3.05 -10.344,-8.52 -18.254,-7.3 3.645,18.86 14.602,37.72 18.254,58.41 6.082,0 7.297,-7.3 10.344,-10.35 4.859,-14.6 0.601,-29.81 -10.344,-40.76" /><path
         id="path62"
         style="fill:none;stroke:#ffffff;stroke-width:0.18000001;stroke-linecap:butt;stroke-linejoin:miter;stroke-miterlimit:4;stroke-dasharray:none;stroke-opacity:1"
         d="m 857.645,1235.5 c -7.911,14.6 -17.645,25.55 -32.848,31.64 -37.121,15.81 -68.149,-13.39 -95.527,-34.69 -8.516,-7.29 -23.118,-6.08 -27.993,-17.03 40.161,-45.02 107.7,-31.64 154.543,-63.27 l 5.481,4.26 c -1.223,26.16 11.558,55.97 -3.656,79.09 z m -76.661,-20.69 c -3.046,-5.47 -0.601,-18.25 -9.734,-15.82 -9.734,12.78 -8.516,30.42 -0.605,43.81 6.085,7.3 15.82,16.43 27.375,13.38 -1.821,-14.6 -13.379,-26.77 -17.036,-41.37 z m 45.637,-21.9 c -5.476,-3.05 -10.344,-8.52 -18.254,-7.3 3.645,18.86 14.602,37.72 18.254,58.41 6.082,0 7.297,-7.3 10.344,-10.35 4.859,-14.6 0.601,-29.81 -10.344,-40.76 z" /><path
         id="path64"
         style="fill:#000000;fill-opacity:1;fill-rule:nonzero;stroke:none"
         d="m 647.742,1212.99 c -2.429,-8.52 -12.769,-7.91 -21.297,-7.91 -7.91,1.21 -15.82,1.82 -21.902,6.69 -1.215,6.08 5.477,8.51 9.734,9.73 10.957,-3.04 23.731,-1.82 33.465,-8.51" /><path
         id="path66"
         style="fill:#ffffff;fill-opacity:1;fill-rule:nonzero;stroke:none"
         d="m 1727.69,1182.57 c 3.03,-12.78 -0.62,-25.56 -7.31,-35.3 -41.98,-32.84 -72.4,-89.43 -126.55,-104.03 l -4.87,1.82 c 59.02,31.64 64.5,99.78 102.83,147.24 5.47,3.65 10.94,7.3 18.25,8.52 9.73,-0.62 15.2,-9.73 17.65,-18.25" /><path
         id="path68"
         style="fill:#000000;fill-opacity:1;fill-rule:nonzero;stroke:none"
         d="m 651.395,1171.61 c -20.079,-23.11 -52.938,-29.2 -83.36,-27.37 -3.64,2.43 -0.601,6.69 0,9.72 l 8.528,5.48 c 25.546,1.83 49.882,6.7 73.007,14 l 1.825,-1.83" /><path
         id="path70"
         style="fill:#000000;fill-opacity:1;fill-rule:nonzero;stroke:none"
         d="m 1390.01,1150.93 c 3.04,-1.22 4.26,-3.05 5.48,-5.48 1.82,-6.69 -5.48,-10.95 -9.74,-11.56 -41.98,-4.26 -78.48,7.91 -108.9,32.86 l -1.22,6.08 c 34.07,-17.64 71.79,-27.99 114.38,-21.9" /><path
         id="path72"
         style="fill:#ffffff;fill-opacity:1;fill-rule:nonzero;stroke:none"
         d="m 712.234,1086.44 c 2.434,-10.95 10.344,-19.48 15.207,-29.21 -4.257,-4.26 -12.773,-3.64 -17.636,-0.61 -19.473,11.56 -14.61,38.94 -11.563,57.81 l 4.863,12.16 c 7.305,-10.34 4.875,-27.38 9.129,-40.15" /><path
         id="path74"
         style="fill:#000000;fill-opacity:1;fill-rule:nonzero;stroke:none"
         d="m 1543.94,885.652 c 26.16,-36.504 66.92,-65.703 114.99,-52.324 37.12,12.785 68.76,37.727 105.87,49.895 l -2.44,-6.082 c -53.54,-37.114 -105.87,-96.743 -178.88,-69.973 -76.66,35.293 -111.33,123.516 -163.05,187.395 -32.25,41.977 -77.87,78.487 -134.45,81.527 -3.66,1.83 -3.66,7.3 -0.62,9.12 43.81,10.35 85.79,-7.29 121.68,-27.98 55.98,-42.59 96.74,-111.949 136.9,-171.578" /><path
         id="path76"
         style="fill:#000000;fill-opacity:1;fill-rule:nonzero;stroke:none"
         d="m 1098.59,977.527 c -0.62,-13.386 -14.61,-21.902 -24.35,-29.207 -15.21,-7.297 -29.2,-18.855 -45.63,-22.507 -3.04,5.476 -10.34,11.562 -4.87,18.25 23.12,16.425 48.68,26.164 74.85,33.464" /><path
         id="path78"
         style="fill:#000000;fill-opacity:1;fill-rule:nonzero;stroke:none"
         d="m 1104.05,944.063 c -7.91,-31.028 -41.98,-38.333 -68.14,-45.02 -4.26,3.035 0,7.305 1.82,10.344 14.61,23.726 42.6,23.726 63.89,37.117 l 2.43,-2.441" /><path
         id="path80"
         style="fill:#000000;fill-opacity:1;fill-rule:nonzero;stroke:none"
         d="m 1264.68,636.211 c 46.24,-88.828 38.33,-205.039 125.33,-271.356 31.64,-25.558 91.26,-37.113 93.09,-87.609 -26.77,54.758 -95.52,49.277 -134.47,88.215 -36.5,33.465 -49.88,77.879 -66.31,119.859 -22.52,65.715 -33.46,135.676 -59.02,199.563 3.65,1.211 7.91,-1.223 10.35,-4.258 l 31.03,-44.414" /><path
         id="path82"
         style="fill:#000000;fill-opacity:1;fill-rule:nonzero;stroke:none"
         d="m 1180.11,377.02 c 6.69,-10.946 6.69,-26.766 1.22,-37.723 -5.48,-10.344 -15.22,-22.512 -27.38,-21.289 10.34,23.113 7.3,51.719 -1.22,75.437 12.17,4.875 21.29,-8.511 27.38,-16.425" /><path
         id="path84"
         style="fill:#000000;fill-opacity:1;fill-rule:nonzero;stroke:none"
         d="m 1752.63,1117.46 c 42.58,-18.85 82.74,-49.28 135.07,-38.94 41.36,10.95 69.35,45.03 80.91,84.58 17.65,59.63 -1.82,123.5 -48.67,161.22 -4.87,1.23 -13.39,6.09 -16.42,-1.82 1.82,-17.03 7.91,-33.47 6.08,-50.5 -1.83,-22.51 -20.08,-39.55 -39.55,-48.06 -46.24,-17.04 -84.57,18.86 -116.21,45.02 4.87,19.47 26.16,31.64 31.64,50.5 -17.03,-9.73 -26.16,-24.34 -43.19,-38.33 l -7.31,-2.44 c -57.8,22.52 -114.99,-5.47 -155.75,-43.19 -31.64,-35.9 -80.31,-40.77 -127.16,-35.9 l -4.87,-3.65 c 40.77,-6.69 69.97,-41.99 110.73,-48.07 7.91,-4.25 21.3,6.08 24.34,-5.47 -3.64,-8.52 -14,-13.39 -23.12,-13.99 -44.42,7.29 -71.79,57.19 -121.08,51.71 -4.87,-2.43 -17.03,-4.86 -12.16,-13.38 63.27,-7.31 87,-104.05 160.01,-78.49 40.76,31.64 24.33,91.87 49.89,132.02 13.99,23.74 38.94,35.9 64.49,39.56 l 1.22,2.43 -15.82,7.91 c 5.47,4.87 15.21,2.43 21.91,1.82 46.23,-14.6 79.69,-60.23 128.98,-67.53 9.12,-5.48 27.37,4.26 31.63,-8.52 -13.38,-16.43 -40.15,-4.86 -57.18,-1.83 v -3.03 c 18.85,-15.82 42.59,-27.39 69.97,-22.52 24.33,3.66 45.62,23.73 51.1,48.07 7.3,26.16 -1.83,54.14 -3.05,79.7 17.05,-17.65 23.73,-38.94 29.82,-60.84 9.13,-49.29 -9.12,-97.96 -45.63,-124.73 -6.08,-4.25 -14.61,-1.22 -17.64,4.87 -2.43,13.99 16.42,20.07 24.33,31.63 2.44,3.66 6.08,10.96 1.83,13.39 -25.56,-18.86 -59.63,-32.24 -91.26,-18.25 -45.03,15.82 -68.15,56.58 -112.56,72.4 -22.52,3.65 -39.55,-10.95 -50.5,-27.38 -21.3,-46.24 -36.5,-116.82 -96.13,-125.33 -45.02,-0.61 -69.37,42.59 -98.57,67.53 -37.11,25.56 -74.83,-7.91 -111.95,-13.38 v -1.82 c 20.69,-3.66 40.16,-7.91 58.41,-17.05 87.01,-43.79 105.87,-144.189 173.4,-204.419 27.38,-23.731 68.76,-29.816 104.04,-18.254 68.15,23.113 167.92,59.016 226.94,-4.258 32.86,-38.332 33.46,-105.254 10.35,-148.457 -3.05,-3.039 -7.92,-6.086 -11.56,-2.429 2.42,38.933 19.47,77.261 3.64,115.593 -9.13,26.778 -31.63,46.848 -59.63,52.324 -113.16,15.215 -158.78,-124.726 -270.13,-116.203 -103.43,22.512 -149.06,122.903 -208.08,200.774 -32.85,38.329 -75.44,84.569 -132.02,82.139 -7.3,-5.48 -21.9,-10.95 -18.86,-22.51 88.22,-48.067 114.99,-150.887 168.53,-226.336 45.02,-63.274 114.38,-81.528 183.74,-93.086 79.71,-12.778 71.18,-104.035 89.43,-163.059 10.35,-30.41 29.82,-67.527 63.29,-77.871 1.21,7.305 -9.74,13.391 -9.14,20.684 29.82,-17.032 66.93,-21.907 103.44,-17.649 1.82,-1.812 -0.61,-4.258 0,-6.687 -14.61,-18.25 -38.33,-23.731 -63.28,-20.684 -14.6,-12.168 -37.72,-9.133 -52.93,-1.824 -90.05,39.551 -32.85,155.75 -93.08,211.727 -56.59,32.246 -128.99,24.941 -181.93,65.703 -73.61,45.031 -94.91,132.636 -135.67,201.386 -23.72,38.329 -51.11,79.706 -95.52,89.446 111.95,-73.02 100.39,-214.778 187.39,-306.035 53.54,-69.368 164.27,-24.336 216.59,-99.778 26.16,-50.508 24.34,-112.558 64.5,-156.972 l -1.83,-1.829 c -68.75,32.247 -62.06,114.993 -124.11,153.926 -60.24,37.727 -136.29,-6.687 -201.39,15.821 -77.88,44.417 -78.48,139.328 -82.14,223.898 l 1.83,1.223 c 16.43,-53.547 18.86,-112.559 41.37,-163.059 18.26,-31.641 49.29,-63.281 89.44,-60.234 4.86,0.605 12.17,0.605 12.17,4.863 -41.98,18.867 -72.4,62.059 -87,104.648 -26.16,93.086 -37.73,203.821 -128.99,259.192 -12.77,7.293 -29.21,7.293 -40.76,15.806 -3.65,12.79 -7.91,27.39 -3.65,41.38 4.26,20.68 32.85,14.6 35.9,37.11 3.64,5.48 11.55,7.3 12.16,13.99 -17.64,3.05 -40.76,3.05 -46.85,22.52 -5.47,26.77 22.52,40.15 37.12,57.19 -29.82,-7.3 -58.41,-17.65 -85.79,-31.03 -6.09,-7.3 -25.55,0.61 -20.69,-14.61 18.25,-41.36 36.51,-83.34 51.11,-126.55 -4.87,-41.365 -26.77,-75.435 -43.8,-111.939 -13.99,-29.816 -55.98,-12.773 -82.74,-14.602 -12.17,4.864 -10.36,18.86 -15.829,27.989 -0.613,15.207 -14.605,33.457 -2.429,46.242 31.028,17.637 64.488,31.629 95.518,50.5 9.74,7.29 11.56,17.63 10.95,28.59 -2.43,7.91 -7.3,14.6 -14.6,17.03 -8.52,3.05 -20.69,3.05 -27.38,-3.65 -1.82,-2.43 -1.22,-7.91 3.04,-7.29 9.13,-4.88 14.6,-15.22 10.95,-25.56 -7.3,-13.394 -21.9,-15.206 -33.46,-20.687 -0.6,7.911 14.6,10.337 15.82,20.077 0,3.65 -4.87,3.65 -7.91,3.65 l -40.15,-32.242 c -9.739,-9.738 -23.13,-18.867 -38.337,-14.61 -20.074,12.168 -40.152,27.383 -57.801,43.812 0,10.95 -7.297,18.25 -11.562,27.38 5.476,3.65 12.168,-3.05 17.644,-4.87 33.469,-3.04 71.797,-6.09 104.046,-0.61 8.52,4.87 18.25,9.13 20.68,19.48 -8.51,-0.62 -14.6,-6.7 -23.11,-7.31 -35.295,3.65 -80.92,-10.95 -107.092,15.82 -1.211,5.48 3.652,9.74 7.305,12.17 20.078,18.86 52.929,5.48 77.265,14.6 1.223,3.65 -2.433,4.87 -3.64,6.69 -15.215,4.87 -41.379,-4.26 -44.418,18.87 0.609,27.37 11.554,51.1 11.554,78.48 -7.297,9.73 -20.078,1.82 -30.422,3.04 -10.945,10.95 -2.429,32.86 -17.644,41.98 -10.34,1.83 -24.336,6.09 -32.852,1.22 5.481,-32.25 -0.605,-64.49 -8.515,-93.7 -4.258,-10.95 -15.821,-12.77 -24.942,-15.21 -24.953,-19.47 -54.148,-47.46 -90.051,-37.11 -7.3,4.25 -15.82,12.16 -12.168,23.12 8.516,17.64 29.817,20.68 48.672,21.9 6.692,17.64 25.559,3.65 38.332,5.48 v 2.43 c -35.898,21.3 -82.746,20.69 -121.679,35.89 -19.473,-17.63 -29.817,-44.41 -34.075,-70.57 -3.042,-14 3.657,-32.25 -5.476,-43.8 -23.113,-4.88 -46.238,1.82 -65.711,10.94 -65.703,34.68 -95.52,111.34 -177.656,112.57 -4.258,1.82 -12.168,0.6 -11.555,7.9 37.715,35.29 90.039,40.77 143.586,35.29 20.074,0 41.98,8.52 49.273,27.38 -10.945,3.65 -22.507,-3.05 -33.457,-4.87 -31.636,-1.82 -61.453,12.78 -76.66,36.51 -54.148,59.62 -7.906,169.75 -91.258,208.08 -22.519,14.6 -60.847,6.69 -69.968,37.71 -1.828,3.65 1.824,6.09 4.257,7.3 49.891,-7.91 95.516,10.35 144.801,13.4 98.559,-9.74 64.492,-128.38 135.676,-169.15 32.246,-20.68 82.742,-30.41 117.422,-7.3 2.434,2.43 3.652,7.3 1.824,10.34 l -190.43,208.08 -107.695,113.78 h -6.082 c 9.133,-41.99 23.731,-81.54 34.68,-122.3 1.219,-4.86 3.648,-15.82 -5.473,-15.82 -37.117,0 -71.797,7.91 -99.168,29.21 -21.301,16.43 -31.64,39.54 -31.035,66.32 -2.434,20.68 13.992,34.07 19.473,51.71 l -4.258,7.3 c -31.035,7.92 -60.84,-6.69 -81.531,-26.76 -26.77,-29.82 -32.246,-72.41 -26.164,-112.56 11.562,-82.14 100.996,-92.48 158.796,-125.94 18.86,-12.78 32.856,-35.9 34.075,-57.81 -30.418,0.61 -60.235,9.13 -91.875,10.35 l -1.211,-1.83 c 30.422,-13.39 63.269,-19.46 94.914,-28.59 l 9.121,-9.13 c 7.906,-27.99 18.25,-55.97 24.336,-83.35 -1.828,-2.43 -3.645,0 -6.086,0 l -222.07,121.07 -9.727,1.83 v -3.05 c 43.191,-55.96 91.262,-111.33 138.105,-167.92 1.219,-3.04 4.864,-7.91 0.606,-10.95 -53.535,-24.94 -86.387,31.03 -122.899,59.02 -38.937,32.25 -102.824,41.37 -149.062,17.64 -51.711,-27.38 -79.6992,-88.22 -77.2696,-149.66 0.6094,-7.31 7.9141,-13.39 14.6016,-10.36 24.3359,13.4 48.6719,26.78 77.883,27.99 47.461,4.26 82.742,-24.33 112.555,-58.4 l 0.609,-7.3 c -21.289,-15.82 -47.453,-25.56 -71.184,-38.33 v -3.65 c 31.641,4.86 58.407,24.94 90.039,26.77 36.516,-30.43 79.102,-48.07 127.774,-51.11 69.961,-1.82 130.808,44.42 201.387,16.43 7.292,-4.26 18.25,-5.48 17.031,-16.43 -7.305,-10.34 -16.426,-15.21 -27.383,-18.25 l -436.836,-3.65 -61.4531,-2.43 c -3.0391,-1.83 0.6133,-3.05 0.6133,-4.88 C 128.77,985.438 192.645,959.277 253.484,925.813 v -5.469 C 216.98,899.648 197.52,850.977 151.887,844.285 111.73,842.461 75.8281,880.188 33.8477,855.852 21.0742,848.547 10.7305,838.809 6.47656,824.813 -8.73828,786.484 41.1523,809.609 54.543,793.789 c 28.5937,-25.559 51.102,-52.324 85.176,-67.539 56.582,-19.465 111.336,3.652 153.926,36.504 6.082,2.441 11.558,11.562 18.867,6.699 -31.035,-49.89 -65.11,-98.562 -97.961,-147.234 l -0.606,-7.309 c 108.907,52.934 214.16,114.992 322.461,170.363 l 2.434,-1.828 -7.309,-52.32 c -3.648,-23.73 -5.476,-49.895 -20.679,-68.75 -55.364,-11.562 -112.559,-20.695 -166.711,-36.516 -1.211,-2.429 1.828,-2.429 3.047,-3.64 l 144.191,15.808 c 1.824,-1.211 6.695,0 4.871,-4.257 -59.629,-67.532 -161.836,-55.364 -219.641,-126.543 -15.214,-25.555 -23.125,-61.457 -10.945,-91.258 4.863,-14.614 16.426,-26.781 17.637,-41.985 -12.774,-1.828 -24.942,-3.652 -35.899,-9.129 -12.773,-7.914 -20.683,-24.335 -22.507,-40.761 1.824,-18.254 6.082,-37.121 20.691,-49.289 18.254,-16.426 47.449,-22.508 71.184,-15.203 55.359,15.82 63.269,77.878 73.003,125.332 21.301,49.89 71.797,79.089 121.079,89.429 l 3.035,-1.812 c -4.864,-73.02 -19.461,-144.809 -27.371,-217.817 0,-3.046 0,-8.523 4.863,-7.3 l 188.008,306.636 72.39,114.993 6.7,1.828 c 15.82,-14.602 35.285,-32.246 45.019,-52.93 2.434,-10.344 -1.211,-19.477 -9.734,-26.777 -43.196,-17.036 -90.657,-35.891 -113.164,-81.528 -18.254,-32.847 -16.426,-79.09 -12.168,-116.812 -20.078,-26.164 -42.59,-41.367 -60.239,-68.75 24.954,10.945 45.032,32.246 70.579,40.761 20.695,-32.25 34.675,-66.32 45.632,-102.218 9.121,-40.762 -7.91,-75.442 -34.675,-103.426 -12.168,-17.031 -41.985,-21.906 -45.633,-43.813 3.047,-4.863 7.91,-9.722 13.992,-10.339 59.629,-9.7387 119.25,7.91 162.449,45.632 24.336,21.289 27.988,52.93 43.801,77.27 31.641,-40.766 55.371,-87.004 88.223,-126.555 l 2.429,1.824 v 351.067 l 3.047,8.516 c 1.215,0 2.434,0.605 3.039,-0.618 21.301,-62.05 95.526,-91.257 107.696,-157.578 l -62.06,-133.847 -0.6,-9.735 h 1.82 c 16.43,13.992 26.77,36.504 43.2,49.895 1.82,-36.504 7.3,-71.797 27.98,-100.395 20.69,-32.242 61.45,-33.4647 85.18,-60.8397 3.65,-7.3008 1.82,-17.039 -6.69,-20.6914 -6.69,-5.4687 -21.91,0 -21.3,-12.168 3.65,-3.0351 7.31,-5.4687 12.17,-6.6914 27.38,-5.47653 55.97,0 73.62,20.6836 17.64,18.2539 22.51,45.0313 17.03,71.1919 -10.94,51.105 -77.26,77.265 -59.01,138.722 2.43,3.645 4.25,11.555 11.56,8.516 39.54,-28.594 74.23,-63.281 116.2,-88.223 1.22,0 1.83,1.824 1.83,3.047 l -166.7,512.891 -1.22,9.121 c 9.13,0.617 10.95,-10.949 15.82,-17.031 35.9,-91.258 59.01,-187.391 96.74,-278.047 10.94,-31.028 38.33,-50.496 66.31,-63.274 6.09,-27.383 -0.61,-64.488 5.48,-90.652 7.9,26.164 8.52,55.359 14.59,82.746 3.05,7.906 12.79,6.082 20.08,6.082 4.27,0 9.13,0 9.74,4.258 -9.74,10.344 -23.72,17.031 -35.89,24.941 -67.54,70.574 -71.8,170.363 -101,257.969 -27.38,80.918 -71.19,155.144 -81.53,243.367 -1.83,10.344 1.83,18.254 7.31,25.551 3.64,1.219 4.86,-1.816 7.91,-3.039 48.05,-59.629 43.79,-144.805 93.68,-205.039 52.33,-44.414 72.41,-109.512 108.3,-164.27 41.99,-68.14 132.63,-76.051 177.66,-139.324 31.03,-44.414 10.34,-106.477 -11.56,-148.457 -10.34,-13.379 -19.47,-33.457 -34.68,-38.937 15.21,25.558 31.03,51.105 29.82,83.351 0.6,53.547 -45.03,88.223 -83.97,118.645 -73.62,48.066 -93.08,138.113 -134.46,209.296 -8.52,12.165 -17.64,30.418 -30.42,34.676 31.03,-76.054 40.77,-160.625 90.65,-228.761 31.04,-38.946 86.4,-46.852 114.39,-88.829 16.43,-26.16 16.43,-66.929 3.65,-94.91 -9.74,-24.953 -29.21,-46.238 -36.51,-71.797 3.04,-5.476 10.35,-5.476 15.83,-4.257 60.84,32.246 100.99,95.515 113.76,161.23 4.87,12.168 -3.04,29.813 6.09,40.762 20.08,-2.434 37.11,-10.949 57.19,-12.168 v 3.652 l -240.93,246.406 c -1.22,3.653 -4.26,7.305 0,10.34 18.25,4.262 37.11,3.656 55.36,0.61 102.22,-10.344 138.72,-119.856 176.45,-196.516 h 3.04 l -6.7,38.332 c -1.82,3.035 2.44,5.477 4.26,5.477 40.16,-29.207 96.14,-38.946 145.41,-26.164 34.68,12.167 66.32,35.902 76.06,72.406 -0.61,6.687 -10.35,7.293 -15.82,5.469 -51.11,-10.344 -101.6,4.253 -132.03,45.027 l -7.91,-4.871 c -7.9,9.129 -6.69,22.508 -12.16,32.859 0,13.985 -7.31,28.594 -0.62,41.973 35.29,3.047 73.63,-0.606 110.73,-0.606 3.66,0 9.14,0 9.14,3.653 -51.72,34.675 -108.31,66.32 -162.45,98.562 l -9.13,9.121 c 12.17,6.692 27.38,6.086 40.16,10.344 16.43,5.48 31.02,15.82 48.07,20.078 16.42,-19.465 32.23,-41.367 47.45,-61.445 l 4.25,-0.613 c -6.69,27.988 -24.33,51.113 -31.02,78.484 26.16,21.301 52.32,48.672 85.18,60.234 23.72,6.082 50.49,1.825 67.54,-13.996 24.33,-23.719 9.11,-61.441 5.46,-90.039 1.22,-6.082 4.88,-12.781 10.34,-15.215 9.74,-2.429 18.25,2.434 25.56,10.344 23.12,38.328 27.99,100.996 6.09,141.77 -12.78,32.847 -46.24,47.449 -75.44,59.011 -77.89,23.117 -139.95,-24.336 -212.96,-27.988 -4.86,0.605 -12.16,0 -13.38,5.48 1.83,3.036 5.47,3.036 7.91,5.465 l 248.23,96.743 5.48,5.477 c -0.61,0 -2.43,0 -2.43,1.22 l -376.01,13.99 -9.73,3.64 c -1.82,5.49 -10.95,10.97 -6.08,17.05 23.72,-5.48 46.23,-17.65 73.61,-11.56 33.47,4.25 57.81,32.24 83.35,49.89 35.9,-6.09 70.58,-18.25 105.27,-22.51 -23.73,12.77 -49.9,20.08 -74.84,29.81 -4.26,4.87 -20.07,5.47 -12.17,15.21 16.43,16.42 39.54,26.16 63.28,20.68 z M 299.121,1595.07 c -19.473,21.3 -24.336,49.89 -19.473,79.09 7.305,21.9 27.989,45.64 52.942,43.81 -13.996,-26.16 -17.043,-60.24 -7.309,-88.83 15.824,-34.68 50.5,-49.28 81.535,-62.66 -38.332,-15.83 -80.925,0 -107.695,28.59 z M 190.215,1195.34 c -8.516,-9.13 -24.942,-3.65 -35.281,-1.22 -39.551,10.96 -78.4887,-2.43 -111.9535,-17.64 16.4218,34.68 49.2773,59.02 88.2185,62.67 24.946,1.83 49.895,-3.65 60.844,-26.16 1.219,-5.48 3.047,-14 -1.828,-17.65 z m -32.852,59.63 c -19.472,6.08 -47.461,-9.74 -59.0114,10.34 4.2534,22.51 27.9764,31.03 46.8434,34.68 26.77,6.69 45.02,-24.94 68.75,-5.48 37.11,-4.26 52.325,-49.28 80.313,-65.7 36.504,-34.69 82.129,-46.86 129.59,-53.54 3.652,-1.23 4.863,-6.09 3.039,-9.13 -38.332,-20.08 -91.867,-25.55 -136.282,-13.39 -60.234,16.43 -63.886,104.04 -133.242,102.22 z m 306.035,-161.84 c -10.957,-14.61 -29.21,-18.25 -45.031,-22.52 -40.152,-10.34 -81.519,0 -115.594,16.43 -6.085,3.65 -6.085,12.78 -4.863,20.08 35.891,29.81 85.781,31.64 133.242,26.77 12.168,-2.44 25.547,-8.52 32.246,-19.46 3.04,-6.09 1.211,-15.22 0,-21.3 z m 147.84,-52.93 c 4.867,1.82 6.692,-2.43 8.52,-5.48 -18.86,-23.72 -48.07,-34.68 -74.836,-43.802 -19.473,-6.699 -42.586,-6.699 -63.887,-4.871 49.285,4.258 92.481,26.163 130.203,54.153 z M 295.469,949.543 c 14.609,22.508 40.156,37.723 67.539,40.152 55.359,3.657 94.297,-39.55 152.707,-32.847 38.328,3.035 72.398,17.632 104.644,34.675 0,-9.738 -7.91,-20.683 -15.816,-26.164 -35.891,-29.812 -87.004,-40.757 -133.852,-27.379 -42.586,17.04 -93.687,59.625 -139.929,21.903 -1.219,-3.653 2.429,-7.293 6.086,-5.481 60.84,6.703 94.91,-53.535 152.703,-54.754 7.91,-1.828 17.644,0.618 24.953,-3.64 -19.477,-15.215 -49.895,-18.867 -74.836,-10.957 -47.461,19.469 -85.789,61.453 -146.023,50.496 -6.692,4.258 -0.61,9.734 1.824,13.996 z M 39.3242,821.777 h -2.4297 c 5.4766,12.168 20.0782,18.25 33.4649,20.078 32.8556,1.829 56.5816,-24.953 90.0386,-15.214 15.215,0 32.864,24.336 43.207,4.863 1.825,-10.945 -3.656,-19.461 -10.343,-25.547 -55.977,-48.066 -93.094,36.504 -153.9378,15.82 z m 275.0118,3.036 c -27.383,-45.633 -63.887,-89.43 -121.074,-90.653 -17.039,-2.43 -37.117,-2.43 -46.856,10.957 0.614,21.289 26.778,10.344 38.328,19.461 59.028,20.078 78.489,105.258 152.114,91.274 0,-12.786 -17.043,-20.082 -22.512,-31.039 z m 196.516,23.734 c -52.329,-22.512 -106.477,1.824 -149.668,27.984 -21.301,8.52 -47.461,3.039 -69.36,0.61 -9.129,4.254 -7.304,16.422 -4.871,23.726 12.168,17.649 34.68,20.078 54.152,15.821 46.844,-15.211 83.348,-57.801 138.106,-50.497 43.199,5.469 76.656,34.075 111.336,57.793 -13.984,-35.886 -45.625,-60.234 -79.695,-75.437 z m -0.61,-326.723 c -27.383,-12.168 -59.012,-24.336 -90.047,-15.816 -6.086,3.648 -3.652,10.957 -3.039,15.816 18.86,15.821 41.977,23.735 62.668,35.903 20.078,13.992 36.504,32.246 60.227,41.98 7.304,1.211 15.816,-0.613 18.867,-6.699 C 565,562.59 533.359,535.82 510.242,521.824 Z m -172.793,17.043 c 65.102,30.41 149.668,34.063 188.606,107.071 l 14.609,34.687 C 540.051,622.82 491.379,575.977 440.879,554.07 c -46.231,-17.039 -84.57,-52.925 -131.414,-68.75 -4.863,0 -9.738,3.657 -10.344,8.52 -0.605,23.125 20.684,35.894 38.328,45.027 z M 317.988,313.75 c -4.875,-11.562 -27.383,-6.082 -23.73,-24.336 -6.699,-3.047 -13.992,2.434 -16.426,8.516 -3.047,18.254 -27.988,9.738 -29.211,29.199 -1.219,7.305 1.223,15.215 4.863,21.301 10.957,10.34 34.075,15.215 41.985,-1.828 -4.258,-23.731 35.293,-6.082 22.519,-32.852 z M 704.324,668.457 C 671.477,561.367 565.605,492.012 458.523,478.02 l -7.293,1.824 c -40.156,-7.91 -91.269,7.304 -121.074,-20.684 12.168,-9.734 32.246,-15.82 39.539,-33.469 7.91,-5.464 15.825,4.258 24.336,4.258 -17.027,-23.113 -25.547,-49.883 -32.246,-77.261 -4.258,-20.083 -7.906,-40.762 -22.508,-55.364 43.203,59.617 -35.898,99.168 -22.507,158.184 28.589,43.808 90.652,25.555 138.101,33.469 51.113,8.511 98.567,36.503 124.731,83.953 41.375,90.656 2.429,214.773 43.804,305.429 15.824,41.368 44.414,84.571 80.918,111.336 -66.922,-71.179 -100.996,-160.007 -90.047,-263.445 1.828,-24.336 -0.605,-52.93 1.828,-74.832 10.34,10.34 14.598,26.766 17.645,41.98 24.941,90.657 7.91,199.563 79.695,268.915 -73.007,-99.168 -29.199,-247.008 -88.211,-352.262 -7.91,-12.168 -14.609,-24.953 -18.867,-38.332 h 6.082 c 80.918,73.613 87.617,181.308 93.703,287.773 4.258,19.473 7.293,38.946 15.821,55.977 -14.61,-77.266 1.828,-168.528 -17.649,-247.012 z m 365.056,185.566 c 1.82,-4.257 -2.44,-6.085 -5.49,-6.699 -56.58,-2.429 -113.761,-0.605 -168.519,5.481 -1.223,0.601 -1.223,1.824 -1.223,3.047 l 6.086,2.429 c 55.977,-1.218 116.216,0 169.146,-4.258 z M 969.602,745.117 c -12.168,3.035 -18.254,14.602 -23.735,25.547 -1.219,6.086 1.211,12.781 5.481,14.609 6.687,0.606 5.468,-6.699 9.726,-9.128 z m -97.961,292.653 c -3.047,-8.52 -10.34,-23.13 -0.606,-32.25 15.203,-15.825 44.414,-1.83 55.969,-24.336 -20.078,12.168 -57.793,-0.618 -65.703,30.416 -1.828,9.74 -1.223,24.34 10.34,26.17 z m 26.164,-88.227 c -4.258,11.562 -20.078,10.945 -26.164,22.508 l 1.828,0.605 c 24.937,-4.863 52.926,-6.086 68.75,-28.593 9.129,-1.211 17.031,7.304 26.16,1.828 0.605,-21.289 -7.91,-40.762 -13.992,-60.239 -18.86,-14.597 -46.242,-3.648 -69.36,-5.464 -13.386,4.863 -19.468,21.289 -21.902,34.675 17.637,1.211 38.328,-15.82 53.535,0.606 -17.031,14.597 -45.625,13.386 -57.187,35.898 12.773,1.223 26.164,-6.086 38.332,-1.824 z M 717.102,139.734 c 17.644,20.079 35.894,43.204 41.98,69.973 22.512,113.164 -114.387,201.992 -27.988,310.293 31.035,43.809 116.816,38.328 102.219,110.129 -20.684,54.141 -64.497,99.168 -71.184,158.789 -3.652,31.641 -10.352,68.75 -0.613,98.562 -5.469,-93.691 59.629,-159.406 97.957,-234.843 9.738,-31.641 1.828,-67.539 -22.508,-87.617 -52.942,-32.852 -118.039,-71.79 -109.524,-146.016 9.129,-86.399 105.262,-178.875 22.52,-260.399 -9.734,-7.914 -20.078,-17.648 -32.859,-18.871 z m 240.332,469.7 C 932.48,528.516 852.168,471.328 845.48,383.105 832.09,309.492 866.16,219.441 808.977,162.859 799.238,152.52 787.07,143.391 773.684,139.734 c 31.035,41.379 41.375,104.653 21.296,154.543 -18.25,58.411 -68.144,118.645 -31.64,184.961 33.469,66.321 143.586,85.176 121.687,177.657 -17.644,60.839 -60.23,111.335 -64.492,177.05 7.297,-11.562 13.996,-24.336 20.078,-37.121 26.77,-45.625 65.102,-86.394 73.617,-139.929 l 1.825,-1.829 C 924.57,589.355 869.211,549.813 824.797,514.52 789.504,479.844 771.25,430.566 786.465,379.453 c 7.91,-35.281 23.723,-68.137 37.715,-100.383 5.476,11.555 1.218,25.547 0,37.715 -26.16,74.231 -6.082,157.578 47.461,211.731 45.632,42.589 78.488,99.785 60.839,164.277 -7.292,35.281 -36.503,61.445 -45.625,95.52 9.727,-1.829 17.637,-12.778 26.153,-20.684 37.722,-43.203 59.629,-99.785 44.426,-158.195 z M 977.5,550.422 c -5.469,-19.465 -1.211,-42.59 -0.605,-61.445 -19.461,29.812 -14.598,73.613 -7.293,108.289 7.898,55.976 57.188,104.043 33.458,165.488 -2.43,7.91 -4.259,17.043 1.22,24.336 13.38,-12.168 13.99,-33.457 21.29,-50.496 0.61,-68.75 -44.418,-118.633 -48.07,-186.172 z M 1198.96,56.3867 c -9.12,3.6524 -7.29,15.8203 -15.2,21.3008 -9.13,10.3398 -19.47,17.6328 -31.03,23.7185 -2.44,2.442 1.22,6.699 4.26,6.082 18.25,0 37.11,-3.64 46.85,-21.2888 2.43,-9.1289 4.26,-20.6797 -3.05,-27.9844 z m -4.86,338.8863 c 43.2,-78.488 -68.75,-133.847 -21.3,-215.378 20.7,-33.457 59.63,-60.239 55.98,-104.6528 -1.22,-18.25 -9.12,-36.5039 -26.77,-44.4141 1.83,6.6992 9.12,11.5664 12.78,18.8672 5.48,10.9492 7.3,25.5469 3.65,37.7266 -20.69,45.0191 -88.83,30.4221 -107.69,81.5231 -9.73,29.2 -1.82,59.629 4.86,87.61 10.35,32.859 20.69,77.879 1.83,110.125 -52.93,60.234 -90.65,138.718 -62.06,220.859 18.86,48.672 29.21,112.551 6.08,162.441 79.1,-82.746 -37.72,-172.792 7.31,-266.484 7.91,-14.601 14,-32.246 29.82,-41.98 v 7.3 c -15.82,37.114 -28.61,82.747 -15.22,124.719 14.6,51.719 41.38,117.434 9.74,169.758 43.19,-49.895 28.59,-128.984 15.2,-188.613 -13.38,-69.36 49.89,-111.34 85.79,-159.407 z m 377.83,158.797 h -5.48 c -8.52,12.778 -23.72,19.465 -36.51,29.817 -0.6,3.039 0.62,5.468 3.65,5.468 17.05,-1.816 34.08,-15.82 38.34,-32.851 z m 268.92,290.215 c -29.21,-18.863 -62.67,-32.859 -90.05,-55.972 -4.86,0 -10.34,-4.258 -14.6,0 -6.08,5.476 -6.7,12.773 -3.65,19.468 23.11,30.422 56.58,62.668 99.77,58.41 l 6.09,-3.652 c 4.27,-4.871 6.08,-12.773 2.44,-18.254" /><path
         id="path86"
         style="fill:none;stroke:#ffffff;stroke-width:0.89999998;stroke-linecap:butt;stroke-linejoin:miter;stroke-miterlimit:4;stroke-dasharray:none;stroke-opacity:1"
         d="m 1752.63,1117.46 c 42.58,-18.85 82.74,-49.28 135.07,-38.94 41.36,10.95 69.35,45.03 80.91,84.58 17.65,59.63 -1.82,123.5 -48.67,161.22 -4.87,1.23 -13.39,6.09 -16.42,-1.82 1.82,-17.03 7.91,-33.47 6.08,-50.5 -1.83,-22.51 -20.08,-39.55 -39.55,-48.06 -46.24,-17.04 -84.57,18.86 -116.21,45.02 4.87,19.47 26.16,31.64 31.64,50.5 -17.03,-9.73 -26.16,-24.34 -43.19,-38.33 l -7.31,-2.44 c -57.8,22.52 -114.99,-5.47 -155.75,-43.19 -31.64,-35.9 -80.31,-40.77 -127.16,-35.9 l -4.87,-3.65 c 40.77,-6.69 69.97,-41.99 110.73,-48.07 7.91,-4.25 21.3,6.08 24.34,-5.47 -3.64,-8.52 -14,-13.39 -23.12,-13.99 -44.42,7.29 -71.79,57.19 -121.08,51.71 -4.87,-2.43 -17.03,-4.86 -12.16,-13.38 63.27,-7.31 87,-104.05 160.01,-78.49 40.76,31.64 24.33,91.87 49.89,132.02 13.99,23.74 38.94,35.9 64.49,39.56 l 1.22,2.43 -15.82,7.91 c 5.47,4.87 15.21,2.43 21.91,1.82 46.23,-14.6 79.69,-60.23 128.98,-67.53 9.12,-5.48 27.37,4.26 31.63,-8.52 -13.38,-16.43 -40.15,-4.86 -57.18,-1.83 v -3.03 c 18.85,-15.82 42.59,-27.39 69.97,-22.52 24.33,3.66 45.62,23.73 51.1,48.07 7.3,26.16 -1.83,54.14 -3.05,79.7 17.05,-17.65 23.73,-38.94 29.82,-60.84 9.13,-49.29 -9.12,-97.96 -45.63,-124.73 -6.08,-4.25 -14.61,-1.22 -17.64,4.87 -2.43,13.99 16.42,20.07 24.33,31.63 2.44,3.66 6.08,10.96 1.83,13.39 -25.56,-18.86 -59.63,-32.24 -91.26,-18.25 -45.03,15.82 -68.15,56.58 -112.56,72.4 -22.52,3.65 -39.55,-10.95 -50.5,-27.38 -21.3,-46.24 -36.5,-116.82 -96.13,-125.33 -45.02,-0.61 -69.37,42.59 -98.57,67.53 -37.11,25.56 -74.83,-7.91 -111.95,-13.38 v -1.82 c 20.69,-3.66 40.16,-7.91 58.41,-17.05 87.01,-43.79 105.87,-144.189 173.4,-204.419 27.38,-23.731 68.76,-29.816 104.04,-18.254 68.15,23.113 167.92,59.016 226.94,-4.258 32.86,-38.332 33.46,-105.254 10.35,-148.457 -3.05,-3.039 -7.92,-6.086 -11.56,-2.429 2.42,38.933 19.47,77.261 3.64,115.593 -9.13,26.778 -31.63,46.848 -59.63,52.324 -113.16,15.215 -158.78,-124.726 -270.13,-116.203 -103.43,22.512 -149.06,122.903 -208.08,200.774 -32.85,38.329 -75.44,84.569 -132.02,82.139 -7.3,-5.48 -21.9,-10.95 -18.86,-22.51 88.22,-48.067 114.99,-150.887 168.53,-226.336 45.02,-63.274 114.38,-81.528 183.74,-93.086 79.71,-12.778 71.18,-104.035 89.43,-163.059 10.35,-30.41 29.82,-67.527 63.29,-77.871 1.21,7.305 -9.74,13.391 -9.14,20.684 29.82,-17.032 66.93,-21.907 103.44,-17.649 1.82,-1.812 -0.61,-4.258 0,-6.687 -14.61,-18.25 -38.33,-23.731 -63.28,-20.684 -14.6,-12.168 -37.72,-9.133 -52.93,-1.824 -90.05,39.551 -32.85,155.75 -93.08,211.727 -56.59,32.246 -128.99,24.941 -181.93,65.703 -73.61,45.031 -94.91,132.636 -135.67,201.386 -23.72,38.329 -51.11,79.706 -95.52,89.446 111.95,-73.02 100.39,-214.778 187.39,-306.035 53.54,-69.368 164.27,-24.336 216.59,-99.778 26.16,-50.508 24.34,-112.558 64.5,-156.972 l -1.83,-1.829 c -68.75,32.247 -62.06,114.993 -124.11,153.926 -60.24,37.727 -136.29,-6.687 -201.39,15.821 -77.88,44.417 -78.48,139.328 -82.14,223.898 l 1.83,1.223 c 16.43,-53.547 18.86,-112.559 41.37,-163.059 18.26,-31.641 49.29,-63.281 89.44,-60.234 4.86,0.605 12.17,0.605 12.17,4.863 -41.98,18.867 -72.4,62.059 -87,104.648 -26.16,93.086 -37.73,203.821 -128.99,259.192 -12.77,7.293 -29.21,7.293 -40.76,15.806 -3.65,12.79 -7.91,27.39 -3.65,41.38 4.26,20.68 32.85,14.6 35.9,37.11 3.64,5.48 11.55,7.3 12.16,13.99 -17.64,3.05 -40.76,3.05 -46.85,22.52 -5.47,26.77 22.52,40.15 37.12,57.19 -29.82,-7.3 -58.41,-17.65 -85.79,-31.03 -6.09,-7.3 -25.55,0.61 -20.69,-14.61 18.25,-41.36 36.51,-83.34 51.11,-126.55 -4.87,-41.365 -26.77,-75.435 -43.8,-111.939 -13.99,-29.816 -55.98,-12.773 -82.74,-14.602 -12.17,4.864 -10.36,18.86 -15.829,27.989 -0.613,15.207 -14.605,33.457 -2.429,46.242 31.028,17.637 64.488,31.629 95.518,50.5 9.74,7.29 11.56,17.63 10.95,28.59 -2.43,7.91 -7.3,14.6 -14.6,17.03 -8.52,3.05 -20.69,3.05 -27.38,-3.65 -1.82,-2.43 -1.22,-7.91 3.04,-7.29 9.13,-4.88 14.6,-15.22 10.95,-25.56 -7.3,-13.394 -21.9,-15.206 -33.46,-20.687 -0.6,7.911 14.6,10.337 15.82,20.077 0,3.65 -4.87,3.65 -7.91,3.65 l -40.15,-32.242 c -9.739,-9.738 -23.13,-18.867 -38.337,-14.61 -20.074,12.168 -40.152,27.383 -57.801,43.812 0,10.95 -7.297,18.25 -11.562,27.38 5.476,3.65 12.168,-3.05 17.644,-4.87 33.469,-3.04 71.797,-6.09 104.046,-0.61 8.52,4.87 18.25,9.13 20.68,19.48 -8.51,-0.62 -14.6,-6.7 -23.11,-7.31 -35.295,3.65 -80.92,-10.95 -107.092,15.82 -1.211,5.48 3.652,9.74 7.305,12.17 20.078,18.86 52.929,5.48 77.265,14.6 1.223,3.65 -2.433,4.87 -3.64,6.69 -15.215,4.87 -41.379,-4.26 -44.418,18.87 0.609,27.37 11.554,51.1 11.554,78.48 -7.297,9.73 -20.078,1.82 -30.422,3.04 -10.945,10.95 -2.429,32.86 -17.644,41.98 -10.34,1.83 -24.336,6.09 -32.852,1.22 5.481,-32.25 -0.605,-64.49 -8.515,-93.7 -4.258,-10.95 -15.821,-12.77 -24.942,-15.21 -24.953,-19.47 -54.148,-47.46 -90.051,-37.11 -7.3,4.25 -15.82,12.16 -12.168,23.12 8.516,17.64 29.817,20.68 48.672,21.9 6.692,17.64 25.559,3.65 38.332,5.48 v 2.43 c -35.898,21.3 -82.746,20.69 -121.679,35.89 -19.473,-17.63 -29.817,-44.41 -34.075,-70.57 -3.042,-14 3.657,-32.25 -5.476,-43.8 -23.113,-4.88 -46.238,1.82 -65.711,10.94 -65.703,34.68 -95.52,111.34 -177.656,112.57 -4.258,1.82 -12.168,0.6 -11.555,7.9 37.715,35.29 90.039,40.77 143.586,35.29 20.074,0 41.98,8.52 49.273,27.38 -10.945,3.65 -22.507,-3.05 -33.457,-4.87 -31.636,-1.82 -61.453,12.78 -76.66,36.51 -54.148,59.62 -7.906,169.75 -91.258,208.08 -22.519,14.6 -60.847,6.69 -69.968,37.71 -1.828,3.65 1.824,6.09 4.257,7.3 49.891,-7.91 95.516,10.35 144.801,13.4 98.559,-9.74 64.492,-128.38 135.676,-169.15 32.246,-20.68 82.742,-30.41 117.422,-7.3 2.434,2.43 3.652,7.3 1.824,10.34 l -190.43,208.08 -107.695,113.78 h -6.082 c 9.133,-41.99 23.731,-81.54 34.68,-122.3 1.219,-4.86 3.648,-15.82 -5.473,-15.82 -37.117,0 -71.797,7.91 -99.168,29.21 -21.301,16.43 -31.64,39.54 -31.035,66.32 -2.434,20.68 13.992,34.07 19.473,51.71 l -4.258,7.3 c -31.035,7.92 -60.84,-6.69 -81.531,-26.76 -26.77,-29.82 -32.246,-72.41 -26.164,-112.56 11.562,-82.14 100.996,-92.48 158.796,-125.94 18.86,-12.78 32.856,-35.9 34.075,-57.81 -30.418,0.61 -60.235,9.13 -91.875,10.35 l -1.211,-1.83 c 30.422,-13.39 63.269,-19.46 94.914,-28.59 l 9.121,-9.13 c 7.906,-27.99 18.25,-55.97 24.336,-83.35 -1.828,-2.43 -3.645,0 -6.086,0 l -222.07,121.07 -9.727,1.83 v -3.05 c 43.191,-55.96 91.262,-111.33 138.105,-167.92 1.219,-3.04 4.864,-7.91 0.606,-10.95 -53.535,-24.94 -86.387,31.03 -122.899,59.02 -38.937,32.25 -102.824,41.37 -149.062,17.64 -51.711,-27.38 -79.6992,-88.22 -77.2696,-149.66 0.6094,-7.31 7.9141,-13.39 14.6016,-10.36 24.3359,13.4 48.6719,26.78 77.883,27.99 47.461,4.26 82.742,-24.33 112.555,-58.4 l 0.609,-7.3 c -21.289,-15.82 -47.453,-25.56 -71.184,-38.33 v -3.65 c 31.641,4.86 58.407,24.94 90.039,26.77 36.516,-30.43 79.102,-48.07 127.774,-51.11 69.961,-1.82 130.808,44.42 201.387,16.43 7.292,-4.26 18.25,-5.48 17.031,-16.43 -7.305,-10.34 -16.426,-15.21 -27.383,-18.25 l -436.836,-3.65 -61.4531,-2.43 c -3.0391,-1.83 0.6133,-3.05 0.6133,-4.88 C 128.77,985.438 192.645,959.277 253.484,925.813 v -5.469 C 216.98,899.648 197.52,850.977 151.887,844.285 111.73,842.461 75.8281,880.188 33.8477,855.852 21.0742,848.547 10.7305,838.809 6.47656,824.813 -8.73828,786.484 41.1523,809.609 54.543,793.789 c 28.5937,-25.559 51.102,-52.324 85.176,-67.539 56.582,-19.465 111.336,3.652 153.926,36.504 6.082,2.441 11.558,11.562 18.867,6.699 -31.035,-49.89 -65.11,-98.562 -97.961,-147.234 l -0.606,-7.309 c 108.907,52.934 214.16,114.992 322.461,170.363 l 2.434,-1.828 -7.309,-52.32 c -3.648,-23.73 -5.476,-49.895 -20.679,-68.75 -55.364,-11.562 -112.559,-20.695 -166.711,-36.516 -1.211,-2.429 1.828,-2.429 3.047,-3.64 l 144.191,15.808 c 1.824,-1.211 6.695,0 4.871,-4.257 -59.629,-67.532 -161.836,-55.364 -219.641,-126.543 -15.214,-25.555 -23.125,-61.457 -10.945,-91.258 4.863,-14.614 16.426,-26.781 17.637,-41.985 -12.774,-1.828 -24.942,-3.652 -35.899,-9.129 -12.773,-7.914 -20.683,-24.335 -22.507,-40.761 1.824,-18.254 6.082,-37.121 20.691,-49.289 18.254,-16.426 47.449,-22.508 71.184,-15.203 55.359,15.82 63.269,77.878 73.003,125.332 21.301,49.89 71.797,79.089 121.079,89.429 l 3.035,-1.812 c -4.864,-73.02 -19.461,-144.809 -27.371,-217.817 0,-3.046 0,-8.523 4.863,-7.3 l 188.008,306.636 72.39,114.993 6.7,1.828 c 15.82,-14.602 35.285,-32.246 45.019,-52.93 2.434,-10.344 -1.211,-19.477 -9.734,-26.777 -43.196,-17.036 -90.657,-35.891 -113.164,-81.528 -18.254,-32.847 -16.426,-79.09 -12.168,-116.812 -20.078,-26.164 -42.59,-41.367 -60.239,-68.75 24.954,10.945 45.032,32.246 70.579,40.761 20.695,-32.25 34.675,-66.32 45.632,-102.218 9.121,-40.762 -7.91,-75.442 -34.675,-103.426 -12.168,-17.031 -41.985,-21.906 -45.633,-43.813 3.047,-4.863 7.91,-9.722 13.992,-10.339 59.629,-9.7387 119.25,7.91 162.449,45.632 24.336,21.289 27.988,52.93 43.801,77.27 31.641,-40.766 55.371,-87.004 88.223,-126.555 l 2.429,1.824 v 351.067 l 3.047,8.516 c 1.215,0 2.434,0.605 3.039,-0.618 21.301,-62.05 95.526,-91.257 107.696,-157.578 l -62.06,-133.847 -0.6,-9.735 h 1.82 c 16.43,13.992 26.77,36.504 43.2,49.895 1.82,-36.504 7.3,-71.797 27.98,-100.395 20.69,-32.242 61.45,-33.4647 85.18,-60.8397 3.65,-7.3008 1.82,-17.039 -6.69,-20.6914 -6.69,-5.4687 -21.91,0 -21.3,-12.168 3.65,-3.0351 7.31,-5.4687 12.17,-6.6914 27.38,-5.47653 55.97,0 73.62,20.6836 17.64,18.2539 22.51,45.0313 17.03,71.1919 -10.94,51.105 -77.26,77.265 -59.01,138.722 2.43,3.645 4.25,11.555 11.56,8.516 39.54,-28.594 74.23,-63.281 116.2,-88.223 1.22,0 1.83,1.824 1.83,3.047 l -166.7,512.891 -1.22,9.121 c 9.13,0.617 10.95,-10.949 15.82,-17.031 35.9,-91.258 59.01,-187.391 96.74,-278.047 10.94,-31.028 38.33,-50.496 66.31,-63.274 6.09,-27.383 -0.61,-64.488 5.48,-90.652 7.9,26.164 8.52,55.359 14.59,82.746 3.05,7.906 12.79,6.082 20.08,6.082 4.27,0 9.13,0 9.74,4.258 -9.74,10.344 -23.72,17.031 -35.89,24.941 -67.54,70.574 -71.8,170.363 -101,257.969 -27.38,80.918 -71.19,155.144 -81.53,243.367 -1.83,10.344 1.83,18.254 7.31,25.551 3.64,1.219 4.86,-1.816 7.91,-3.039 48.05,-59.629 43.79,-144.805 93.68,-205.039 52.33,-44.414 72.41,-109.512 108.3,-164.27 41.99,-68.14 132.63,-76.051 177.66,-139.324 31.03,-44.414 10.34,-106.477 -11.56,-148.457 -10.34,-13.379 -19.47,-33.457 -34.68,-38.937 15.21,25.558 31.03,51.105 29.82,83.351 0.6,53.547 -45.03,88.223 -83.97,118.645 -73.62,48.066 -93.08,138.113 -134.46,209.296 -8.52,12.165 -17.64,30.418 -30.42,34.676 31.03,-76.054 40.77,-160.625 90.65,-228.761 31.04,-38.946 86.4,-46.852 114.39,-88.829 16.43,-26.16 16.43,-66.929 3.65,-94.91 -9.74,-24.953 -29.21,-46.238 -36.51,-71.797 3.04,-5.476 10.35,-5.476 15.83,-4.257 60.84,32.246 100.99,95.515 113.76,161.23 4.87,12.168 -3.04,29.813 6.09,40.762 20.08,-2.434 37.11,-10.949 57.19,-12.168 v 3.652 l -240.93,246.406 c -1.22,3.653 -4.26,7.305 0,10.34 18.25,4.262 37.11,3.656 55.36,0.61 102.22,-10.344 138.72,-119.856 176.45,-196.516 h 3.04 l -6.7,38.332 c -1.82,3.035 2.44,5.477 4.26,5.477 40.16,-29.207 96.14,-38.946 145.41,-26.164 34.68,12.167 66.32,35.902 76.06,72.406 -0.61,6.687 -10.35,7.293 -15.82,5.469 -51.11,-10.344 -101.6,4.253 -132.03,45.027 l -7.91,-4.871 c -7.9,9.129 -6.69,22.508 -12.16,32.859 0,13.985 -7.31,28.594 -0.62,41.973 35.29,3.047 73.63,-0.606 110.73,-0.606 3.66,0 9.14,0 9.14,3.653 -51.72,34.675 -108.31,66.32 -162.45,98.562 l -9.13,9.121 c 12.17,6.692 27.38,6.086 40.16,10.344 16.43,5.48 31.02,15.82 48.07,20.078 16.42,-19.465 32.23,-41.367 47.45,-61.445 l 4.25,-0.613 c -6.69,27.988 -24.33,51.113 -31.02,78.484 26.16,21.301 52.32,48.672 85.18,60.234 23.72,6.082 50.49,1.825 67.54,-13.996 24.33,-23.719 9.11,-61.441 5.46,-90.039 1.22,-6.082 4.88,-12.781 10.34,-15.215 9.74,-2.429 18.25,2.434 25.56,10.344 23.12,38.328 27.99,100.996 6.09,141.77 -12.78,32.847 -46.24,47.449 -75.44,59.011 -77.89,23.117 -139.95,-24.336 -212.96,-27.988 -4.86,0.605 -12.16,0 -13.38,5.48 1.83,3.036 5.47,3.036 7.91,5.465 l 248.23,96.743 5.48,5.477 c -0.61,0 -2.43,0 -2.43,1.22 l -376.01,13.99 -9.73,3.64 c -1.82,5.49 -10.95,10.97 -6.08,17.05 23.72,-5.48 46.23,-17.65 73.61,-11.56 33.47,4.25 57.81,32.24 83.35,49.89 35.9,-6.09 70.58,-18.25 105.27,-22.51 -23.73,12.77 -49.9,20.08 -74.84,29.81 -4.26,4.87 -20.07,5.47 -12.17,15.21 16.43,16.42 39.54,26.16 63.28,20.68 z M 299.121,1595.07 c -19.473,21.3 -24.336,49.89 -19.473,79.09 7.305,21.9 27.989,45.64 52.942,43.81 -13.996,-26.16 -17.043,-60.24 -7.309,-88.83 15.824,-34.68 50.5,-49.28 81.535,-62.66 -38.332,-15.83 -80.925,0 -107.695,28.59 z M 190.215,1195.34 c -8.516,-9.13 -24.942,-3.65 -35.281,-1.22 -39.551,10.96 -78.4887,-2.43 -111.9535,-17.64 16.4218,34.68 49.2773,59.02 88.2185,62.67 24.946,1.83 49.895,-3.65 60.844,-26.16 1.219,-5.48 3.047,-14 -1.828,-17.65 z m -32.852,59.63 c -19.472,6.08 -47.461,-9.74 -59.0114,10.34 4.2534,22.51 27.9764,31.03 46.8434,34.68 26.77,6.69 45.02,-24.94 68.75,-5.48 37.11,-4.26 52.325,-49.28 80.313,-65.7 36.504,-34.69 82.129,-46.86 129.59,-53.54 3.652,-1.23 4.863,-6.09 3.039,-9.13 -38.332,-20.08 -91.867,-25.55 -136.282,-13.39 -60.234,16.43 -63.886,104.04 -133.242,102.22 z m 306.035,-161.84 c -10.957,-14.61 -29.21,-18.25 -45.031,-22.52 -40.152,-10.34 -81.519,0 -115.594,16.43 -6.085,3.65 -6.085,12.78 -4.863,20.08 35.891,29.81 85.781,31.64 133.242,26.77 12.168,-2.44 25.547,-8.52 32.246,-19.46 3.04,-6.09 1.211,-15.22 0,-21.3 z m 147.84,-52.93 c 4.867,1.82 6.692,-2.43 8.52,-5.48 -18.86,-23.72 -48.07,-34.68 -74.836,-43.802 -19.473,-6.699 -42.586,-6.699 -63.887,-4.871 49.285,4.258 92.481,26.163 130.203,54.153 z M 295.469,949.543 c 14.609,22.508 40.156,37.723 67.539,40.152 55.359,3.657 94.297,-39.55 152.707,-32.847 38.328,3.035 72.398,17.632 104.644,34.675 0,-9.738 -7.91,-20.683 -15.816,-26.164 -35.891,-29.812 -87.004,-40.757 -133.852,-27.379 -42.586,17.04 -93.687,59.625 -139.929,21.903 -1.219,-3.653 2.429,-7.293 6.086,-5.481 60.84,6.703 94.91,-53.535 152.703,-54.754 7.91,-1.828 17.644,0.618 24.953,-3.64 -19.477,-15.215 -49.895,-18.867 -74.836,-10.957 -47.461,19.469 -85.789,61.453 -146.023,50.496 -6.692,4.258 -0.61,9.734 1.824,13.996 z M 39.3242,821.777 h -2.4297 c 5.4766,12.168 20.0782,18.25 33.4649,20.078 32.8556,1.829 56.5816,-24.953 90.0386,-15.214 15.215,0 32.864,24.336 43.207,4.863 1.825,-10.945 -3.656,-19.461 -10.343,-25.547 -55.977,-48.066 -93.094,36.504 -153.9378,15.82 z m 275.0118,3.036 c -27.383,-45.633 -63.887,-89.43 -121.074,-90.653 -17.039,-2.43 -37.117,-2.43 -46.856,10.957 0.614,21.289 26.778,10.344 38.328,19.461 59.028,20.078 78.489,105.258 152.114,91.274 0,-12.786 -17.043,-20.082 -22.512,-31.039 z m 196.516,23.734 c -52.329,-22.512 -106.477,1.824 -149.668,27.984 -21.301,8.52 -47.461,3.039 -69.36,0.61 -9.129,4.254 -7.304,16.422 -4.871,23.726 12.168,17.649 34.68,20.078 54.152,15.821 46.844,-15.211 83.348,-57.801 138.106,-50.497 43.199,5.469 76.656,34.075 111.336,57.793 -13.984,-35.886 -45.625,-60.234 -79.695,-75.437 z m -0.61,-326.723 c -27.383,-12.168 -59.012,-24.336 -90.047,-15.816 -6.086,3.648 -3.652,10.957 -3.039,15.816 18.86,15.821 41.977,23.735 62.668,35.903 20.078,13.992 36.504,32.246 60.227,41.98 7.304,1.211 15.816,-0.613 18.867,-6.699 C 565,562.59 533.359,535.82 510.242,521.824 Z m -172.793,17.043 c 65.102,30.41 149.668,34.063 188.606,107.071 l 14.609,34.687 C 540.051,622.82 491.379,575.977 440.879,554.07 c -46.231,-17.039 -84.57,-52.925 -131.414,-68.75 -4.863,0 -9.738,3.657 -10.344,8.52 -0.605,23.125 20.684,35.894 38.328,45.027 z M 317.988,313.75 c -4.875,-11.562 -27.383,-6.082 -23.73,-24.336 -6.699,-3.047 -13.992,2.434 -16.426,8.516 -3.047,18.254 -27.988,9.738 -29.211,29.199 -1.219,7.305 1.223,15.215 4.863,21.301 10.957,10.34 34.075,15.215 41.985,-1.828 -4.258,-23.731 35.293,-6.082 22.519,-32.852 z M 704.324,668.457 C 671.477,561.367 565.605,492.012 458.523,478.02 l -7.293,1.824 c -40.156,-7.91 -91.269,7.304 -121.074,-20.684 12.168,-9.734 32.246,-15.82 39.539,-33.469 7.91,-5.464 15.825,4.258 24.336,4.258 -17.027,-23.113 -25.547,-49.883 -32.246,-77.261 -4.258,-20.083 -7.906,-40.762 -22.508,-55.364 43.203,59.617 -35.898,99.168 -22.507,158.184 28.589,43.808 90.652,25.555 138.101,33.469 51.113,8.511 98.567,36.503 124.731,83.953 41.375,90.656 2.429,214.773 43.804,305.429 15.824,41.368 44.414,84.571 80.918,111.336 -66.922,-71.179 -100.996,-160.007 -90.047,-263.445 1.828,-24.336 -0.605,-52.93 1.828,-74.832 10.34,10.34 14.598,26.766 17.645,41.98 24.941,90.657 7.91,199.563 79.695,268.915 -73.007,-99.168 -29.199,-247.008 -88.211,-352.262 -7.91,-12.168 -14.609,-24.953 -18.867,-38.332 h 6.082 c 80.918,73.613 87.617,181.308 93.703,287.773 4.258,19.473 7.293,38.946 15.821,55.977 -14.61,-77.266 1.828,-168.528 -17.649,-247.012 z m 365.056,185.566 c 1.82,-4.257 -2.44,-6.085 -5.49,-6.699 -56.58,-2.429 -113.761,-0.605 -168.519,5.481 -1.223,0.601 -1.223,1.824 -1.223,3.047 l 6.086,2.429 c 55.977,-1.218 116.216,0 169.146,-4.258 z M 969.602,745.117 c -12.168,3.035 -18.254,14.602 -23.735,25.547 -1.219,6.086 1.211,12.781 5.481,14.609 6.687,0.606 5.468,-6.699 9.726,-9.128 z m -97.961,292.653 c -3.047,-8.52 -10.34,-23.13 -0.606,-32.25 15.203,-15.825 44.414,-1.83 55.969,-24.336 -20.078,12.168 -57.793,-0.618 -65.703,30.416 -1.828,9.74 -1.223,24.34 10.34,26.17 z m 26.164,-88.227 c -4.258,11.562 -20.078,10.945 -26.164,22.508 l 1.828,0.605 c 24.937,-4.863 52.926,-6.086 68.75,-28.593 9.129,-1.211 17.031,7.304 26.16,1.828 0.605,-21.289 -7.91,-40.762 -13.992,-60.239 -18.86,-14.597 -46.242,-3.648 -69.36,-5.464 -13.386,4.863 -19.468,21.289 -21.902,34.675 17.637,1.211 38.328,-15.82 53.535,0.606 -17.031,14.597 -45.625,13.386 -57.187,35.898 12.773,1.223 26.164,-6.086 38.332,-1.824 z M 717.102,139.734 c 17.644,20.079 35.894,43.204 41.98,69.973 22.512,113.164 -114.387,201.992 -27.988,310.293 31.035,43.809 116.816,38.328 102.219,110.129 -20.684,54.141 -64.497,99.168 -71.184,158.789 -3.652,31.641 -10.352,68.75 -0.613,98.562 -5.469,-93.691 59.629,-159.406 97.957,-234.843 9.738,-31.641 1.828,-67.539 -22.508,-87.617 -52.942,-32.852 -118.039,-71.79 -109.524,-146.016 9.129,-86.399 105.262,-178.875 22.52,-260.399 -9.734,-7.914 -20.078,-17.648 -32.859,-18.871 z m 240.332,469.7 C 932.48,528.516 852.168,471.328 845.48,383.105 832.09,309.492 866.16,219.441 808.977,162.859 799.238,152.52 787.07,143.391 773.684,139.734 c 31.035,41.379 41.375,104.653 21.296,154.543 -18.25,58.411 -68.144,118.645 -31.64,184.961 33.469,66.321 143.586,85.176 121.687,177.657 -17.644,60.839 -60.23,111.335 -64.492,177.05 7.297,-11.562 13.996,-24.336 20.078,-37.121 26.77,-45.625 65.102,-86.394 73.617,-139.929 l 1.825,-1.829 C 924.57,589.355 869.211,549.813 824.797,514.52 789.504,479.844 771.25,430.566 786.465,379.453 c 7.91,-35.281 23.723,-68.137 37.715,-100.383 5.476,11.555 1.218,25.547 0,37.715 -26.16,74.231 -6.082,157.578 47.461,211.731 45.632,42.589 78.488,99.785 60.839,164.277 -7.292,35.281 -36.503,61.445 -45.625,95.52 9.727,-1.829 17.637,-12.778 26.153,-20.684 37.722,-43.203 59.629,-99.785 44.426,-158.195 z M 977.5,550.422 c -5.469,-19.465 -1.211,-42.59 -0.605,-61.445 -19.461,29.812 -14.598,73.613 -7.293,108.289 7.898,55.976 57.188,104.043 33.458,165.488 -2.43,7.91 -4.259,17.043 1.22,24.336 13.38,-12.168 13.99,-33.457 21.29,-50.496 0.61,-68.75 -44.418,-118.633 -48.07,-186.172 z M 1198.96,56.3867 c -9.12,3.6524 -7.29,15.8203 -15.2,21.3008 -9.13,10.3398 -19.47,17.6328 -31.03,23.7185 -2.44,2.442 1.22,6.699 4.26,6.082 18.25,0 37.11,-3.64 46.85,-21.2888 2.43,-9.1289 4.26,-20.6797 -3.05,-27.9844 z m -4.86,338.8863 c 43.2,-78.488 -68.75,-133.847 -21.3,-215.378 20.7,-33.457 59.63,-60.239 55.98,-104.6528 -1.22,-18.25 -9.12,-36.5039 -26.77,-44.4141 1.83,6.6992 9.12,11.5664 12.78,18.8672 5.48,10.9492 7.3,25.5469 3.65,37.7266 -20.69,45.0191 -88.83,30.4221 -107.69,81.5231 -9.73,29.2 -1.82,59.629 4.86,87.61 10.35,32.859 20.69,77.879 1.83,110.125 -52.93,60.234 -90.65,138.718 -62.06,220.859 18.86,48.672 29.21,112.551 6.08,162.441 79.1,-82.746 -37.72,-172.792 7.31,-266.484 7.91,-14.601 14,-32.246 29.82,-41.98 v 7.3 c -15.82,37.114 -28.61,82.747 -15.22,124.719 14.6,51.719 41.38,117.434 9.74,169.758 43.19,-49.895 28.59,-128.984 15.2,-188.613 -13.38,-69.36 49.89,-111.34 85.79,-159.407 z m 377.83,158.797 h -5.48 c -8.52,12.778 -23.72,19.465 -36.51,29.817 -0.6,3.039 0.62,5.468 3.65,5.468 17.05,-1.816 34.08,-15.82 38.34,-32.851 z m 268.92,290.215 c -29.21,-18.863 -62.67,-32.859 -90.05,-55.972 -4.86,0 -10.34,-4.258 -14.6,0 -6.08,5.476 -6.7,12.773 -3.65,19.468 23.11,30.422 56.58,62.668 99.77,58.41 l 6.09,-3.652 c 4.27,-4.871 6.08,-12.773 2.44,-18.254 z" /></g></g></svg>